<svg version="1.1" id="Layer_1" xmlns="http://www.w3.org/2000/svg" x="0" y="0" width="350" height="350" xml:space="preserve"><style>.st0{fill:#00a78f}.st1{fill:#00baa1}.st2{fill:#40d5bb}.st3{fill:#8ee9d4}.st4{fill:#008673}.st5{fill:#b07ce8}.st7{fill:#4e6cb3}.st9{fill:#89a2f6}.st10{fill:#a0b4f7}.st11{fill:#2e3f8f}.st12{fill:#638af3}.st13{fill:#5765a5}.st14{fill:#bf93eb}.st15{fill:#d2b5f0}.st16{fill:#e2d2f4}.st17{fill:#b0bef3}.st19{fill:#d2d8f4}.st20{fill:#fff}.st21{fill:#4e6cb4}.st22{fill:#9753e1}</style><g id="Layer_1_1_"><path class="st0" d="M157.9 13.2V43l-25.7 14.9.1-29.9 25.6-14.8m.5-.8l-26.6 15.3-.1 31 26.6-15.4c.1 0 .1-30.9.1-30.9z"/><path class="st1" d="M161.1 75.7l26.7-15.3V29.5l-26.6 15.2z"/><path class="st0" d="M134.4 60.2l26.7 15.5.1-31-26.8-15.5z"/><path class="st2" d="M161.2 13.8l26.6 15.7-26.6 15.2-26.8-15.5z"/><path class="st3" d="M161.1 21.5l20.2 11.7-20.1 11.5-20-11.5z"/><path class="st2" d="M181.3 56.4V33.2l-20.1 11.5v23.5z"/><path class="st1" d="M141.1 56.5l.1-23.3 20 11.5v23.5z"/><path class="st4" d="M318.9 151.1l25.6 15.1-25.6 14.7-25.8-14.9 25.8-14.9m0-.6L292.1 166l26.8 15.5 26.6-15.3-26.6-15.7z"/><path class="st5" d="M248.9 28.1l42.2 24.3-.1 48.8-42.3-24.5.2-48.6m-.5-.8l-.2 49.7 43.2 25.1.1-49.9c.1 0-43.1-24.9-43.1-24.9z"/><path fill="#f1f1f9" d="M173.6 327.1L.5 227.5l172.9-99.8 171.8 99.9z"/><path class="st7" d="M173.6 337.6l-.9-.6.2-.4.7.4.8-.4.2.4zM171 336.1l-1.7-1 .2-.4 1.7 1-.2.4zm-3.3-1.9l-1.7-1 .2-.4 1.7 1-.2.4zm-3.4-2l-1.7-1 .2-.4 1.7 1-.2.4zm-3.3-1.9l-1.7-1 .2-.4 1.7 1-.2.4zm-3.3-1.9l-1.7-1 .2-.4 1.7 1-.2.4zm-3.4-1.9l-1.7-1 .2-.4 1.7 1-.2.4zm-3.3-1.9l-1.7-1 .2-.4 1.7 1-.2.4zm-3.3-1.9l-1.7-1 .2-.4 1.7 1-.2.4zm-3.4-1.9l-1.7-1 .2-.4 1.7 1-.2.4zm-3.3-2l-1.7-1 .2-.4 1.7 1-.2.4zm-3.3-1.9l-1.7-1 .2-.4 1.7 1-.2.4zm-3.3-1.9l-1.7-1 .2-.4 1.7 1-.2.4zm-3.3-1.9l-1.7-1 .2-.4 1.7 1-.2.4zm-3.4-1.9l-1.7-1 .2-.4 1.7 1-.2.4zm-3.3-1.9l-1.7-1 .2-.4 1.7 1-.2.4zm-3.3-2l-1.7-1 .2-.4 1.7 1-.2.4zm-3.4-1.9l-1.7-1 .2-.4 1.7 1-.2.4zm-3.3-1.9l-1.7-1 .2-.4 1.7 1-.2.4zm-3.3-1.9l-1.7-1 .2-.4 1.7 1-.2.4zm-3.4-1.9l-1.7-1 .2-.4 1.7 1-.2.4zm-3.3-1.9l-1.7-1 .2-.4 1.7 1-.2.4zm-3.3-1.9l-1.7-1 .2-.4 1.7 1-.2.4zm-3.3-1.9l-1.7-1 .2-.4 1.7 1-.2.4zm-3.4-1.9l-1.7-1 .2-.4 1.7 1-.2.4zm-3.3-1.9l-1.7-1 .2-.4 1.7 1-.2.4zm-3.3-1.9l-1.7-1 .2-.4 1.7 1-.2.4zm-3.4-2l-1.7-1 .2-.4 1.7 1-.2.4zm-3.3-1.9l-1.7-1 .2-.4 1.7 1-.2.4zm-3.3-1.9l-1.7-1 .2-.4 1.7 1-.2.4zm-3.4-1.9l-1.7-1 .2-.4 1.7 1-.2.4zm-3.3-1.9l-1.7-1 .2-.4 1.7 1-.2.4zm-3.3-1.9l-1.7-1 .2-.4 1.7 1-.2.4zm-3.3-2l-1.7-1 .2-.4 1.7 1-.2.4zm-3.4-1.9l-1.7-1 .2-.4 1.7 1-.2.4zm-3.3-1.9l-1.7-1 .2-.4 1.7 1-.2.4zm-3.3-1.9l-1.7-1 .2-.4 1.7 1-.2.4zm-3.4-1.9l-1.7-1 .2-.4 1.7 1-.2.4zm-3.3-1.9l-1.7-1 .2-.4 1.7 1-.2.4zm-3.3-2l-1.7-1 .2-.4 1.7 1-.2.4zm-3.4-1.9l-1.7-1 .2-.4 1.7 1-.2.4zm-3.3-1.9l-1.7-1 .2-.4 1.7 1-.2.4zm-3.3-1.9l-1.7-1 .2-.4 1.7 1-.2.4zm-3.3-1.9l-1.7-1 .2-.4 1.7 1-.2.4zm-3.4-1.9l-1.7-1 .2-.4 1.7 1-.2.4zm-3.3-1.9l-1.7-1 .2-.4 1.7.9-.2.5zm-3.3-2l-1.7-.9.2-.4 1.7 1-.2.3zm-3.4-1.9l-1.7-1 .2-.4 1.7 1-.2.4zm-3.3-1.9l-1.7-1 .2-.4 1.7 1-.2.4zm-3.3-1.9l-1.7-1 .2-.4 1.7.9-.2.5zm-3.3-2l-1.7-.9.2-.4 1.7 1-.2.3zm-3.4-1.9l-1.7-1 .2-.4 1.7 1-.2.4zM1.2 238.4l-1.2-.6 1.2-.7.2.4-.4.3.4.2zM3.1 236.5l-.2-.4 1.7-1 .2.4-1.7 1zm3.3-1.9l-.2-.4 1.7-1 .2.4-1.7 1zm3.3-1.9l-.2-.4 1.7-1 .2.4-1.7 1zm3.4-1.9l-.2-.4 1.7-1 .2.4-1.7 1zm3.3-2l-.2-.4 1.7-1 .2.4-1.7 1zm3.3-1.9l-.2-.4 1.7-1 .2.4-1.7 1zM23 225l-.2-.4 1.7-1 .2.4-1.7 1zm3.3-1.9l-.2-.4 1.7-1 .2.4-1.7 1zm3.3-1.9l-.2-.4 1.7-1 .2.4-1.7 1zm3.4-2l-.2-.4 1.7-1 .2.4-1.7 1zm3.3-1.9l-.2-.4 1.7-1 .2.4-1.7 1zm3.4-1.9l-.2-.4 1.7-1 .2.4-1.7 1zm3.3-1.9l-.2-.4 1.7-1 .2.4-1.7 1zm3.3-1.9l-.2-.4 1.7-1 .2.4-1.7 1zm3.4-2l-.2-.4 1.7-1 .2.4-1.7 1zm3.3-1.9l-.2-.4 1.7-1 .2.4-1.7 1zm3.3-1.9l-.2-.4 1.7-1 .2.4-1.7 1zm3.4-1.9l-.2-.4 1.7-1 .2.4-1.7 1zm3.2-1.9l-.2-.4 1.7-1 .2.4-1.7 1zm3.4-1.9l-.2-.4 1.7-1 .2.4-1.7 1zm3.3-1.9l-.2-.4 1.7-1 .2.4-1.7 1zm3.3-2l-.2-.4 1.7-1 .2.4-1.7 1zm3.3-1.9l-.2-.4 1.7-1 .2.4-1.7 1zm3.4-1.9l-.2-.4 1.7-1 .2.4-1.7 1zm3.3-1.9l-.2-.4 1.7-1 .2.4-1.7 1zm3.3-1.9l-.2-.4 1.7-1 .2.4-1.7 1zm3.3-2l-.2-.4 1.7-1 .2.4-1.7 1zm3.4-1.9l-.2-.4 1.7-1 .2.4-1.7 1zm3.3-1.9l-.2-.4 1.7-1 .2.4-1.7 1zm3.3-1.9l-.2-.4 1.7-1 .2.4-1.7 1zm3.3-1.9l-.2-.4 1.7-1 .2.4-1.7 1zm3.4-2l-.2-.4 1.7-1 .2.4-1.7 1zm3.3-1.9l-.2-.4 1.7-1 .2.4-1.7 1zm3.3-1.9l-.2-.4 1.7-1 .2.4-1.7 1zm3.3-1.9l-.2-.4 1.7-1 .2.4-1.7 1zm3.4-1.9l-.2-.4 1.7-1 .2.4-1.7 1zm3.3-2l-.2-.4 1.7-1 .2.4-1.7 1zm3.3-1.9l-.2-.4 1.7-1 .2.4-1.7 1zm3.3-1.9l-.2-.4 1.7-1 .2.4-1.7 1zm3.4-1.9l-.2-.4 1.7-1 .2.4-1.7 1zm3.3-1.9l-.2-.4 1.7-1 .2.4-1.7 1zm3.3-1.9l-.2-.4 1.7-1 .2.4-1.7 1zm3.3-2l-.2-.4 1.7-1 .2.4-1.7 1zm3.4-1.9l-.2-.4 1.7-1 .2.4-1.7 1zm3.3-1.9l-.2-.4 1.7-1 .2.4-1.7 1zm3.3-1.9l-.2-.4 1.7-1 .2.4-1.7 1zm3.3-1.9l-.2-.4 1.7-1 .2.4-1.7 1zm3.4-2l-.2-.4 1.7-1 .2.4-1.7 1zm3.3-1.9l-.2-.4 1.7-1 .2.4-1.7 1zm3.3-1.9l-.2-.4 1.7-1 .2.4-1.7 1zm3.3-1.9l-.2-.4 1.7-1 .2.4-1.7 1zM174.1 138.6l-.7-.4-.7.4-.3-.4 1-.5.9.5zM342.6 236.5l-1.6-1 .2-.4 1.6 1-.2.4zm-3.3-1.9l-1.7-1 .2-.4 1.7 1-.2.4zm-3.3-1.9l-1.6-1 .2-.4 1.6 1-.2.4zm-3.3-1.9l-1.7-1 .2-.4 1.7 1-.2.4zm-3.3-1.9l-1.6-1 .2-.4 1.6 1-.2.4zm-3.3-2l-1.7-1 .2-.4 1.6 1-.1.4zm-3.3-1.9l-1.6-1 .2-.4 1.6 1-.2.4zm-3.3-1.9l-1.7-1 .2-.4 1.6 1-.1.4zm-3.3-1.9l-1.6-1 .2-.4 1.6 1-.2.4zm-3.3-2l-1.7-1 .2-.4 1.6 1-.1.4zm-3.3-1.9l-1.6-1 .2-.4 1.6 1-.2.4zm-3.3-1.9l-1.7-1 .2-.4 1.6 1-.1.4zm-3.3-1.9l-1.6-1 .2-.4 1.6 1-.2.4zm-3.3-1.9l-1.7-1 .2-.4 1.6 1-.1.4zm-3.3-1.9l-1.6-1 .2-.4 1.6 1-.2.4zm-3.3-2l-1.6-1 .2-.4 1.6 1-.2.4zm-3.3-1.9l-1.6-1 .2-.4 1.6 1-.2.4zm-3.3-1.9l-1.6-1 .2-.4 1.6 1-.2.4zm-3.4-1.9l-1.6-1 .2-.4 1.6 1-.2.4zm-3.3-1.9l-1.6-1 .2-.4 1.6 1-.2.4zm-3.3-1.9l-1.6-1 .2-.4 1.6 1-.2.4zm-3.3-2l-1.7-1 .2-.4 1.6 1-.1.4zm-3.3-1.9l-1.6-1 .2-.4 1.6 1-.2.4zm-3.3-1.9l-1.7-1 .2-.4 1.6 1-.1.4zm-3.3-1.9l-1.6-1 .2-.4 1.6 1-.2.4zm-3.3-1.9l-1.6-1 .2-.4 1.6 1-.2.4zm-3.3-2l-1.6-1 .2-.4 1.7 1-.3.4zm-3.3-1.9l-1.6-1 .2-.4 1.6 1-.2.4zm-3.3-1.9l-1.6-1 .2-.4 1.6 1-.2.4zm-3.3-1.9l-1.6-1 .2-.4 1.6 1-.2.4zm-3.3-1.9l-1.6-1 .2-.4 1.6 1-.2.4zm-3.3-2l-1.6-1 .2-.4 1.6 1-.2.4zm-3.3-1.9l-1.6-1 .2-.4 1.6 1-.2.4zm-3.3-1.9l-1.6-1 .2-.4 1.6 1-.2.4zm-3.3-1.9l-1.6-1 .2-.4 1.6 1-.2.4zm-3.3-1.9l-1.6-1 .2-.4 1.6 1-.2.4zm-3.4-2l-1.6-1 .2-.4 1.6 1-.2.4zm-3.3-1.9l-1.6-1 .2-.4 1.6 1-.2.4zm-3.3-1.9l-1.6-1 .2-.4 1.6 1-.2.4zm-3.3-1.9l-1.6-1 .2-.4 1.6 1-.2.4zm-3.3-2l-1.6-1 .2-.4 1.7 1-.3.4zm-3.3-1.9l-1.6-1 .2-.4 1.6 1-.2.4zm-3.3-1.9l-1.6-1 .2-.4 1.7 1-.3.4zm-3.3-1.9l-1.6-1 .2-.4 1.6 1-.2.4zm-3.3-1.9l-1.6-1 .2-.4 1.7 1-.3.4zm-3.3-2l-1.6-1 .2-.4 1.6 1-.2.4zm-3.3-1.9l-1.6-1 .2-.4 1.7 1-.3.4zm-3.3-1.9l-1.6-1 .2-.4 1.6 1-.2.4zm-3.3-1.9l-1.6-1 .2-.4 1.7 1-.3.4zm-3.3-1.9l-1.6-1 .2-.4 1.6 1-.2.4zm-3.3-2l-1.7-1 .2-.4 1.7 1-.2.4zM344.5 238.5l-.2-.4.5-.3-.5-.3.2-.4 1.2.7zM176.2 336.1l-.2-.4 1.6-1 .2.4-1.6 1zm3.3-1.9l-.2-.4 1.6-1 .2.4-1.6 1zm3.3-2l-.2-.4 1.6-1 .2.4-1.6 1zm3.3-1.9l-.2-.4 1.6-1 .2.4-1.6 1zm3.3-1.9l-.2-.4 1.6-1 .2.4-1.6 1zm3.3-1.9l-.2-.4 1.6-1 .2.4-1.6 1zm3.3-1.9l-.2-.4 1.6-1 .2.4-1.6 1zm3.3-1.9l-.2-.4 1.6-1 .2.4-1.6 1zm3.3-1.9l-.2-.4 1.6-1 .2.4-1.6 1zm3.3-2l-.2-.4 1.6-1 .2.4-1.6 1zm3.3-1.9l-.2-.4 1.6-1 .2.4-1.6 1zm3.3-1.9l-.2-.4 1.6-1 .2.4-1.6 1zm3.3-1.9l-.2-.4 1.6-1 .2.4-1.6 1zm3.3-1.9l-.2-.4 1.6-1 .2.4-1.6 1zm3.3-1.9l-.2-.4 1.6-1 .2.4-1.6 1zm3.3-1.9l-.2-.4 1.6-1 .2.4-1.6 1zm3.3-2l-.2-.4 1.6-1 .2.4-1.6 1zm3.3-1.9l-.2-.4 1.6-1 .2.4-1.6 1zm3.3-1.9l-.2-.4 1.6-1 .2.4-1.6 1zm3.3-1.9l-.2-.4 1.6-1 .2.4-1.6 1zm3.3-1.9l-.2-.4 1.6-1 .2.4-1.6 1zm3.3-1.9l-.2-.4 1.6-1 .2.4-1.6 1zm3.3-1.9l-.2-.4 1.6-1 .2.4-1.6 1zm3.3-1.9l-.2-.4 1.6-1 .2.4-1.6 1zm3.3-2l-.2-.4 1.6-1 .2.4-1.6 1zm3.3-1.9l-.2-.4 1.6-1 .2.4-1.6 1zm3.3-1.9l-.2-.4 1.6-1 .2.4-1.6 1zm3.3-1.9l-.2-.4 1.6-1 .2.4-1.6 1zm3.3-1.9l-.2-.4 1.6-1 .2.4-1.6 1zm3.3-1.9l-.2-.4 1.6-1 .2.4-1.6 1zm3.3-1.9l-.2-.4 1.6-1 .2.4-1.6 1zm3.3-2l-.2-.4 1.6-1 .2.4-1.6 1zm3.3-1.9l-.2-.4 1.6-1 .2.4-1.6 1zm3.3-1.9l-.2-.4 1.6-1 .2.4-1.6 1zm3.3-1.9l-.2-.4 1.6-1 .2.4-1.6 1zm3.3-1.9l-.2-.4 1.6-1 .2.4-1.6 1zm3.3-1.9l-.2-.4 1.6-1 .2.4-1.6 1zm3.3-1.9l-.2-.4 1.6-1 .2.4-1.6 1zm3.3-2l-.2-.4 1.6-1 .2.4-1.6 1zm3.3-1.9l-.2-.4 1.6-1 .2.4-1.6 1zm3.3-1.9l-.2-.4 1.6-1 .2.4-1.6 1zm3.3-1.9l-.2-.4 1.6-1 .2.4-1.6 1zm3.3-1.9l-.2-.4 1.6-1 .2.4-1.6 1zm3.3-1.9l-.2-.4 1.6-1 .2.4-1.6 1zm3.3-1.9l-.2-.4 1.6-1 .2.4-1.6 1zm3.3-2l-.2-.4 1.6-.9.2.4-1.6.9zm3.3-1.9l-.2-.4 1.6-1 .2.4-1.6 1zm3.3-1.9l-.2-.4 1.6-1 .2.4-1.6 1zm3.3-1.9l-.2-.4 1.6-1 .2.4-1.6 1zm3.3-1.9l-.2-.4 1.6-1 .2.4-1.6 1zm3.3-2l-.2-.3 1.6-1 .2.4-1.6.9z"/><path fill="#d3d8ee" d="M172.2 302.1l76.8-44-76.2-43.8-76.4 44.1z"/><path class="st1" d="M47 170.3L73.7 155v-30.9l-26.6 15.2z"/><path class="st0" d="M20.3 154.8L47 170.3l.1-31-26.8-15.5z"/><path class="st9" d="M47.1 108.4l26.6 15.7-26.6 15.2-26.8-15.5z"/><path class="st10" d="M47 116.1l20.2 11.6-20.1 11.6-20-11.7z"/><path class="st2" d="M67.2 151v-23.3L47 139.6l.1 23.2z"/><path class="st1" d="M27 151.2l.1-23.6 19.9 12 .1 23.2zM318.7 179l26.6-15.3v-30.9L318.7 148z"/><path class="st0" d="M291.9 163.5l26.8 15.5v-31l-26.8-15.5z"/><path class="st2" d="M318.7 117.1l26.6 15.7-26.6 15.2-26.8-15.5z"/><path class="st3" d="M318.6 124.8l20.3 11.7-20.2 11.5-19.9-11.5z"/><path class="st2" d="M338.9 159.7v-23.2L318.7 148v23.5z"/><path class="st1" d="M298.6 159.9l.2-23.4 19.9 11.5v23.5z"/><path class="st9" d="M172.7 190.4l75.5-43.6-75.4-43.6-75.5 43.6z"/><path class="st7" d="M248.1 234.1l.1-87.3-75.5 43.6.2 86.8z"/><path class="st11" d="M97.2 233.9l.1-87.1 75.4 43.6.2 86.8z"/><path class="st10" d="M118.7 159.2l54-31.1 54.2 31-54.2 31.3z"/><path class="st12" d="M226.5 221.6l.4-62.5-54.2 31.3.2 62.1z"/><path class="st13" d="M118.7 159.2v62.2l54.2 31.1-.2-62.1z"/><path class="st14" d="M245.4 129l43.3-24.9V54.3l-43.2 24.9z"/><path class="st5" d="M202.4 54.3l43.1 24.9-.1 49.8-43.2-25.1z"/><path class="st15" d="M202.4 54.3l43.1-25.1 43.2 25.1-43.2 24.9z"/><path class="st16" d="M245.4 41.4l32.5 19.1-32.4 18.3L213 60.4z"/><path class="st15" d="M277.9 97.5v-37l-32.4 18.3-.1 37.3z"/><path class="st14" d="M213 60.4v36.9l32.4 18.8.1-37.3z"/><path class="st7" d="M47 139.6l26.7-15.4V93.3l-26.6 15.2z"/><path class="st11" d="M20.3 124L47 139.6l.1-31.1L20.3 93z"/><path class="st9" d="M47.1 77.6l26.6 15.7-26.6 15.2L20.3 93z"/><path class="st10" d="M47 85.3L67.2 97l-20.1 11.5-20-11.5z"/><path class="st12" d="M67.2 120.2V97l-20.1 11.5V132z"/><path class="st13" d="M27 120.4l.1-23.4 20 11.5V132z"/><path class="st17" d="M243.5 224.1l30.5-17.6v-52.9l-30.5 17.6v52.9z"/><path fill="#e7e9f8" d="M266.4 149.2l7.6 4.4-30.5 17.6-7.7-4.4z"/><path class="st19" d="M235.8 219.7v-52.9l7.7 4.4v52.9z"/><path class="st20" d="M247.3 176.9l22.9-13.2v2.8l-22.9 13.2v-2.8zM247.3 185.2l20.5-11.8v2.7L247.3 188zM247.3 193.5l21.7-12.6v2.8l-21.7 12.6zM247.3 201.8l18.1-10.5v2.8l-18.1 10.4z"/><path class="st11" d="M172.9 99.9l74.4 43-74.5 43L98.3 143l74.6-43.1m0-.5L97.4 143l75.4 43.6 75.5-43.6-75.4-43.6zM46.9 75.4l25.6 15.1-25.6 14.7L21 90.3l25.9-14.9m0-.5L20.1 90.3l26.8 15.5 26.6-15.3-26.6-15.6z"/><path class="st21" d="M171 157.9l-1.7-.9.2-.4 1.7.9-.2.4zm-3.3-1.9l-1.7-1 .2-.4 1.7.9-.2.5zm-3.3-1.9l-1.7-1 .2-.4 1.6.9-.1.5zm-3.4-1.9l-1.7-1 .2-.4 1.7 1-.2.4zm-3.3-1.9l-1.7-.9.2-.4 1.7 1-.2.3zm-3.3-1.9l-1.7-.9.2-.4 1.7.9-.2.4zm-3.3-1.9l-1.7-.9.2-.4 1.7.9-.2.4zm-3.3-1.9l-1.7-1 .2-.4 1.7.9-.2.5zm-3.3-1.9l-1.6-1 .2-.4 1.7 1-.3.4zm-3.4-1.9l-1.7-.9.2-.4 1.7 1-.2.3zm-3.3-1.9l-1.7-.9.2-.4 1.7.9-.2.4zm-3.3-1.9l-1.7-1 .2-.4 1.7.9-.2.5zm-3.3-1.9l-1.6-1 .2-.4 1.7.9-.3.5zm-3.3-1.9l-1.7-1 .2-.4 1.7 1-.2.4zm-3.3-1.9l-1.7-.9.2-.4 1.7 1-.2.3zm-3.4-1.9l-1.7-.9.2-.4 1.7.9-.2.4zm-3.3-1.9l-1.7-1 .2-.4 1.7.9-.2.5zm-3.3-1.9l-1.7-1 .2-.4 1.7 1-.2.4zm-3.3-1.9l-1.7-1 .2-.4 1.7 1-.2.4zm-3.3-1.9l-1.7-1 .2-.4 1.7 1-.2.4zm-3.3-1.9l-1.7-.9.2-.4 1.7 1-.2.3zm-3.4-1.9l-1.7-1 .2-.4 1.7.9-.2.5zm-3.3-1.9l-1-.6v-1.1h.5v.8l.7.4-.2.5zm-1-3.5v-1.9h.5v1.9H97zm0-3.9v-1.9h.5v1.9H97zm0-3.8V103h.5v1.9H97zm0-3.8v-1.9h.5v1.9H97zm0-3.8V96h.5v1.2l-.5.1z"/><path class="st21" d="M171.9 156.1c.9.5 1.2 1.6.7 2.5-.5.9-1.6 1.2-2.5.7-.9-.5-1.2-1.6-.7-2.5.5-.9 1.6-1.2 2.5-.7z"/><path class="st14" d="M78.4 294.2l26.6-15.4v-30.9l-26.6 15.2z"/><path class="st5" d="M51.6 278.6l26.8 15.6v-31.1l-26.8-15.5z"/><path class="st15" d="M78.4 232.2l26.6 15.7-26.6 15.2-26.8-15.5z"/><path class="st16" d="M78.3 239.9l20.3 11.7-20.2 11.5-19.9-11.5z"/><path class="st15" d="M98.6 274.8v-23.2l-20.2 11.5v23.5z"/><path class="st14" d="M58.3 275l.2-23.4 19.9 11.5v23.5z"/><path class="st22" d="M245.2 97.9l-1.6-1 .2-.4 1.6 1-.2.4zm1.9-.7l-.2-.4 1.6-1 .2.4-1.6 1zm-5.2-1.3l-1.6-1 .2-.4 1.6 1-.2.4zm8.5-.6l-.2-.4 1.6-1 .2.4-1.6 1zm-11.8-1.4L237 93l.2-.4 1.6 1-.2.3zm15.1-.5l-.2-.4 1.7-1 .2.4-1.7 1zM235.3 92l-1.6-1 .2-.4 1.6 1-.2.4zm21.7-.5l-.2-.4 1.7-1 .2.4-1.7 1zm3.3-1.9l-.2-.4 1.7-1 .2.4-1.7 1zm3.3-1.9l-.2-.4 1.7-1 .2.4-1.7 1zm3.3-1.9l-.2-.4 1.7-1 .2.4-1.7 1zm3.3-2l-.2-.4 1.7-1 .2.4-1.7 1zm3.3-1.9l-.2-.4 1.7-.9.2.4-1.7.9zm3.4-1.9l-.2-.4 1.7-1 .2.4-1.7 1zm3.3-1.9l-.2-.4 1.7-1 .2.4-1.7 1zm3.3-1.9l-.2-.4 1.6-1 .2.4-1.6 1zm3.3-1.9l-.2-.4 1.6-1 .2.4-1.6 1zm3.3-1.9l-.2-.4 1.6-1 .2.4-1.6 1zm3.3-2l-.2-.4 1.6-1 .2.4-1.6 1zm3.3-1.9l-.2-.4 1.6-1 .2.4-1.6 1zm3.3-1.9l-.2-.4 1.6-1 .2.4-1.6 1zm3.3-1.9l-.2-.4 1.6-1 .2.4-1.6 1zm3.3-1.9l-.2-.4 1.6-1 .2.4-1.6 1zm3.4-1.9l-.2-.4 1.6-1 .2.4-1.6 1zm3.3-1.9l-.2-.4 1.7-1 .2.4-1.7 1zm3.3-1.9l-.2-.4 1.7-1 .2.4-1.7 1zM229.8 90.2c-.7-.4-1-1.4-.5-2.1.4-.7 1.3-1 2.1-.7s1 1.3.7 2.1c0 .1-.1.1-.1.2-.5.7-1.5.9-2.2.5z"/><circle cx="318.2" cy="55.7" r="3" fill="#acb7cc"/><circle cx="318.2" cy="55.7" r="1.4" fill="#dce0e5"/><path class="st21" d="M94.5 75.7h-.1c-.6 0-1.2.2-1.7.5l.2.4c.5-.3 1-.4 1.6-.4v-.5zm-3.2 1.8c-.2.4-.4.9-.5 1.3l-.1.3.5.1c.1-.6.3-1.1.6-1.6l-.4-.2-.1.1zm-.2 3.7h-.5c0 .3 0 .6.1.9 0 .3.1.5.1.8l.5-.1c-.1-.6-.2-1.2-.2-1.8v.2zm.7 3.6l-.4.2c.2.5.4.9.6 1.4 0 .1.1.2.1.2l.4-.2c-.3-.6-.5-1.1-.7-1.7v.1zm1.6 3.3l-.4.3c.2.4.5.8.8 1.2h.1l.2.3.4-.3c-.4-.5-.7-1-1.1-1.5zm2.4 2.9l-.3.3.1.1c.3.3.6.5.9.7l.3-.4c-.4-.2-.7-.4-1-.7zm3 2l-.2.4.3.1h.3c.3.1.6.1.9.2h.4v-.5c-.6 0-1.2-.1-1.7-.2zm4.4-1.2c-.3.5-.7.9-1.2 1.2l.2.4.2-.1h.2c.4-.3.7-.7 1-1.1l-.4-.2v-.2zm1.2-3.4h-.5v.4c0 .5 0 .9-.1 1.4l.5.1v-.2-.7-.4l.1-.6zm-.8-3.8l-.5.2c.2.6.4 1.2.5 1.8l.5-.1c-.1-.7-.3-1.3-.5-1.9zm-1.6-3.5l-.4.3c.3.5.6 1.1.9 1.6l.4-.2-.3-.7h-.2c-.1-.2-.2-.4-.3-.5l-.1-.5zm-2.4-3l-.3.3c.4.4.9.9 1.2 1.4l.4-.3c-.4-.5-.8-.9-1.3-1.4zM96.4 76l-.2.4c.3.1.7.3 1 .5.2.1.4.2.5.3l.3-.4-.2-.2h-.4c-.3-.2-.5-.3-.8-.4H96.3V76zm-2-.4v.5h.1l-.1-.5z"/><path class="st4" d="M334.3 202.9l-1-.5.2-.4 1 .6-.2.3zm-2.6-1.5l-1.7-1 .2-.4 1.6.9-.1.5zm-3.3-1.9l-1.7-.9.2-.4 1.7 1-.2.3zm-3.4-1.9l-1.7-.9.2-.4 1.7.9-.2.4zm-3.3-1.9l-1.6-.9.2-.4 1.7.9-.3.4zm-3.3-1.9l-1.7-1 .2-.4 1.7.9-.2.5zm-3.3-1.9l-1.7-1 .2-.4 1.6 1-.1.4zm-3.3-1.9l-1.7-.9.2-.4 1.7 1-.2.3zm-2.9-2.1h-.5V186h.5v1.9zm0-3.8h-.5v-1.9h.5v1.9zm0-3.9h-.5v-1.9h.5v1.9zm0-3.8h-.5v-1.9h.5v1.9zm0-3.8h-.5v-1.9h.5v1.9zm0-3.8h-.5v-1.9h.5v1.9zm0-3.9h-.5V163h.5v1.9zm0-3.8h-.5v-1.9h.5v1.9zM307.1 155.4c0-.8.7-1.5 1.5-1.5s1.5.7 1.5 1.5-.7 1.5-1.5 1.5c-.8.1-1.4-.6-1.5-1.5 0 .1 0 .1 0 0z"/><path class="st22" d="M78.5 251.8l-1.6-1 .2-.4 1.7 1-.3.4zm-3.3-1.9l-1.7-1 .2-.4 1.7 1-.2.4zm-3.3-1.9l-1.7-1 .2-.4 1.7 1-.2.4zm-3.2-2l-1.7-1 .2-.4 1.7 1-.2.4zm-3.4-1.9l-1.7-1 .2-.4 1.6 1-.1.4zm-3.3-2l-1.6-1 .2-.4 1.7 1-.3.4zm-3.2-1.9l-1.7-1 .2-.4 1.7 1-.2.4zm-3.3-1.9l-1.7-1 .2-.4 1.6 1-.1.4zm-3.3-2l-1.7-1 .2-.4 1.7 1-.2.4zm-3.3-1.9l-1.7-1 .2-.4 1.7 1-.2.4zm-3.3-1.9l-1.7-1 .2-.4 1.7 1-.2.4zm-3.3-2l-1.7-1 .2-.4 1.7 1-.2.4zm-3.3-1.9l-1.7-1 .2-.4 1.7 1-.2.4zm-3.3-2l-1.6-1 .2-.4 1.7 1-.3.4zm-3.3-1.9l-1.6-1 .2-.4 1.7 1-.3.4zm-3.3-1.9l-1.6-1 .2-.4 1.6 1-.2.4zm-3.3-2l-1.6-1 .2-.4 1.6 1-.2.4zm-3.3-1.9l-1.6-1 .2-.4 1.6 1-.2.4zm-3.3-1.9l-1.6-1 .2-.4 1.6 1-.2.4zm-3.3-2l-1.6-1 .2-.4 1.6 1-.2.4zm-3.3-1.9l-1.6-1 .2-.4 1.6 1-.2.4zm-3.4-4h.5v1.9h-.5v-1.9zm.4-2h-.4v-1.9h.5v1.9zm0-3.8h-.4v-1.9h.5v1.9zm0-3.8h-.4v-1.9h.5v1.9zm0-3.8h-.4v-1.9h.5v1.9zm0-3.9h-.4v-1.9h.5v1.9zm0-3.8h-.4v-1.9h.5v1.9zm0-3.8h-.4v-1.9h.5v1.9z"/><path class="st22" d="M79.5 250c.9.5 1.1 1.6.6 2.5-.5.9-1.6 1.1-2.5.6s-1.1-1.6-.6-2.5c.5-.8 1.6-1.1 2.5-.6z"/><circle class="st19" cx="9.4" cy="178" r="3"/><circle class="st17" cx="9.4" cy="178" r="1.4"/><path class="st4" d="M341.2 206.8h-.2l-1-.6.2-.4.9.5.5-.3.2.4-.6.4zm2.3-1.4l-.2-.4 1.7-1 .2.4-1.7 1zm-5.2-.2l-1.6-1 .2-.4 1.7 1-.3.4zm8.6-1.7l-.2-.4 1.7-1 .2.4-1.7 1zm-11.9-.2l-1.7-1 .2-.4 1.7.9-.2.5zm14.3-1.7l-1.7-1 .2-.4 1.7 1-.2.4zm-16-.2l-.2-.4 1.7-1 .2.4-1.7 1zm12.7-1.7l-1.7-.9.2-.4 1.7 1-.2.3zm-9.3-.2l-.2-.4 1.7-1 .2.4-1.7 1zm6-1.7l-1.5-.9-1.1.7-.2-.4 1.3-.8h.2l1.6.9-.3.5z"/><path class="st5" d="M106.6 250.2V280l-25.7 14.8v-29.9l25.7-14.7m.4-.9l-26.5 15.3-.1 31 26.6-15.4v-30.9z"/><path class="st19" d="M95.4 94.5c-4.2-2.8-6.9-7.5-7.1-12.6 0-4.6 3.3-6.5 7.2-4.2s7.1 8 7.1 12.6-3.2 6.5-7.2 4.2z"/><path class="st17" d="M89.7 79.6c.9 0 1.8.3 2.6.8 3.5 2.1 6.5 7.3 6.5 11.5.1 1.1-.2 2.2-.9 3.2-.5.7-1.3 1-2.1 1-.9 0-1.8-.3-2.6-.8-3.9-2.6-6.3-6.8-6.5-11.5.1-2.6 1.2-4.1 3-4.2m.1-.9c-2.3 0-3.9 1.9-3.9 5.1.2 5 2.8 9.6 7 12.3.9.6 2 .9 3.1 1 2.3 0 3.9-1.9 3.9-5.1 0-4.5-3.2-10.1-7-12.3-1-.6-2-1-3.1-1z"/><path class="st19" d="M341.1 194.8l8.6 5-8.6 5-8.6-5 8.6-5z"/><path class="st17" d="M341.1 192.9l8.6 5-8.6 5-8.6-5 8.6-5z"/><path d="M341.1 195.4l4.4 2.5-4.4 2.6-4.4-2.6 4.4-2.5z" fill="#eeeff3"/></g></svg>