<?xml version="1.0" encoding="utf-8"?>
<!-- Generator: Adobe Illustrator 15.1.0, SVG Export Plug-In  -->
<!DOCTYPE svg PUBLIC "-//W3C//DTD SVG 1.1//EN" "http://www.w3.org/Graphics/SVG/1.1/DTD/svg11.dtd" [
	<!ENTITY ns_flows "http://ns.adobe.com/Flows/1.0/">
]>
<svg version="1.1"
	 xmlns="http://www.w3.org/2000/svg" xmlns:xlink="http://www.w3.org/1999/xlink" xmlns:a="http://ns.adobe.com/AdobeSVGViewerExtensions/3.0/"
	 x="0px" y="0px" width="438px" height="219px" viewBox="0 0 438 219" enable-background="new 0 0 438 219" xml:space="preserve">
<defs>
</defs>
<radialGradient id="SVGID_1_" cx="219" cy="219" r="219" gradientUnits="userSpaceOnUse">
	<stop  offset="0" style="stop-color:#FFB55C;stop-opacity:0.88"/>
	<stop  offset="1" style="stop-color:#000000;stop-opacity:0"/>
</radialGradient>
<circle fill="url(#SVGID_1_)" cx="219" cy="219" r="219"/>
<path fill="#F7931E" d="M199.826,134.315c4.555,3.915,7.814,14.382,7.814,26.685c0,15.648-5.273,28.334-11.777,28.334
	S184.086,176.648,184.086,161c0-3.694,0.297-7.219,0.832-10.455C174.473,167.11,167.86,191.633,167.86,219h98.162
	c0-15.963-2.253-30.957-6.201-43.971c0.024,0.76,0.038,1.526,0.038,2.304c0,13.624-2.783,34.943-7.439,34.943
	c-4.655,0-9.421-21.319-9.421-34.943c0-12.573,6.754-18.008,12.86-13.333c-6.106-11.333-15.68-6.528-17.846-4.284
	C227.188,170.932,227.188,182,227.188,182C232.713,160.495,201.946,135.712,199.826,134.315"/>
<path fill="#6B3E0C" d="M268.361,218.938l0.103,0.043l0.008-0.02C268.436,218.952,268.395,218.951,268.361,218.938z"/>
<path fill="#6B3E0C" d="M252.42,212.276c3.231,0,6.44-12.311,6.44-18.937l-16.334-7.09
	C243.619,194.797,248.972,212.276,252.42,212.276z"/>
<polygon fill="#6B3E0C" points="257.75,192.857 252.42,212.276 198.901,190.25 207.526,171.25 "/>
<path fill="#6B3E0C" d="M268.36,218.938c1.333,0.557,5.079-2.786,7.233-7.94c2.153-5.155,1.811-9.956,0.478-10.514l-11.721-4.897
	c1.039,7.144,1.605,14.64,1.653,22.367L268.36,218.938z"/>
<path fill="#AF8051" d="M201.151,180.375c-2.154,5.154-3.299,9.354-1.457,10.124s5.079-2.785,7.233-7.94
	c2.153-5.155,2.44-10.539,0.599-11.309C205.687,170.481,203.306,175.22,201.151,180.375z"/>
<rect x="216.455" y="192" fill="#F7931E" width="12" height="14"/>
<path fill="#F26A2F" d="M232.207,194c-1.133,0.151-1.133,0.151-1.133,0.151c-4.825,0-10.578-5.843-10.578-17.299
	c0-9.008,5.902-16.671,9.28-19.537c-1.572,1.022-27.88,19.163-23.782,34.908c0,0,0-8.105-8.03-16.316
	c-1.608-1.643-13.157-10.706-17.688-2.407c4.531-3.423,13.99,6.086,13.99,15.29c0,9.974-3.537,25.563-6.989,25.563
	c-3.456,0-5.52-15.646-5.52-25.622c0-0.569,0-4.675,0.019-5.23c-2.929,9.528-4.591,24.155-4.591,35.5h72.821
	c0-9.032-0.984-17.562-2.767-25.316"/>
<polyline fill="#6B3E0C" points="205.455,199 177.455,199 177.455,219 248.455,219 248.455,199 205.455,199 "/>
<path fill="#6B3E0C" d="M177.639,198.77c-1.445,0-3.613,4.528-3.613,10.115S176.194,219,177.639,219"/>
<ellipse fill="#AF8051" cx="248.807" cy="208.885" rx="3.613" ry="10.115"/>
<linearGradient id="SVGID_2_" gradientUnits="userSpaceOnUse" x1="174.4551" y1="209" x2="248.4551" y2="209">
	<stop  offset="0.1394" style="stop-color:#F7931E"/>
	<stop  offset="0.2922" style="stop-color:#D68120;stop-opacity:0.8225"/>
	<stop  offset="0.5112" style="stop-color:#AC6A21;stop-opacity:0.568"/>
	<stop  offset="0.7099" style="stop-color:#8E5A23;stop-opacity:0.3371"/>
	<stop  offset="0.8795" style="stop-color:#7C5024;stop-opacity:0.14"/>
	<stop  offset="1" style="stop-color:#754C24;stop-opacity:0"/>
</linearGradient>
<rect x="174.455" y="199" fill="url(#SVGID_2_)" width="74" height="20"/>
<path fill="#6B3E0C" d="M233.945,169.104c1.456-0.601,5.507,3.068,7.812,8.708c2.302,5.639,1.983,11.11,0.528,11.713"/>
<polygon fill="#6B3E0C" points="162.604,198.826 234.153,169.289 242.398,189.477 170.848,219.014 "/>
<path fill="#AF8051" d="M162.755,210.424c2.302,5.639,5.798,9.537,7.81,8.706c2.011-0.83,1.774-6.073-0.529-11.713
	c-2.304-5.64-5.8-9.538-7.811-8.707C160.215,199.54,160.452,204.783,162.755,210.424z"/>
<path fill="#F26A2F" d="M232.207,195c4.069-4.396,6.481-8.592,5.763-17.989c-0.206-2.697-1.547-9.654-1.943-12.023
	c4.277,6.695,9.017,19.013,11.214,30.013H232.207z"/>
</svg>
