<?xml version="1.0" encoding="utf-8"?>
<!-- Generator: Adobe Illustrator 15.1.0, SVG Export Plug-In  -->
<!DOCTYPE svg PUBLIC "-//W3C//DTD SVG 1.1//EN" "http://www.w3.org/Graphics/SVG/1.1/DTD/svg11.dtd" [
	<!ENTITY ns_flows "http://ns.adobe.com/Flows/1.0/">
]>
<svg version="1.1"
	 xmlns="http://www.w3.org/2000/svg" xmlns:xlink="http://www.w3.org/1999/xlink" xmlns:a="http://ns.adobe.com/AdobeSVGViewerExtensions/3.0/"
	 x="0px" y="0px" width="438px" height="219px" viewBox="0 0 438 219" enable-background="new 0 0 438 219" xml:space="preserve">
<defs>
</defs>
<radialGradient id="SVGID_1_" cx="219" cy="219" r="219" gradientUnits="userSpaceOnUse">
	<stop  offset="0" style="stop-color:#FFB55C;stop-opacity:0.88"/>
	<stop  offset="1" style="stop-color:#000000;stop-opacity:0"/>
</radialGradient>
<circle fill="url(#SVGID_1_)" cx="219" cy="219" r="219"/>
<path fill="#E58F41" d="M166.789,219c0-49.89,21.974-90.333,49.081-90.333S264.951,169.11,264.951,219"/>
<rect x="174.015" y="160.567" transform="matrix(-0.3855 -0.9227 0.9227 -0.3855 74.051 441.4475)" fill="#6B3E0C" width="20" height="71"/>
<path fill="#6B3E0C" d="M147.419,200.271c-1.333,0.558-1.587,5.571,0.566,10.727c2.154,5.154,5.9,8.497,7.233,7.94"/>
<ellipse transform="matrix(0.9227 -0.3855 0.3855 0.9227 -53.451 97.7187)" fill="#AF8051" cx="216.985" cy="182.166" rx="3.613" ry="10.115"/>
<rect x="168.455" y="199" fill="#6B3E0C" width="71" height="20"/>
<path fill="#6B3E0C" d="M168.568,198.77c-1.445,0-3.613,4.528-3.613,10.115S167.123,219,168.568,219"/>
<ellipse fill="#AF8051" cx="239.736" cy="208.885" rx="3.613" ry="10.115"/>
<rect x="225.928" y="163.426" transform="matrix(0.3424 -0.9395 0.9395 0.3424 -31.7598 352.4719)" fill="#6B3E0C" width="20" height="70.999"/>
<path fill="#6B3E0C" d="M272.049,201.564c1.358,0.495,1.845,5.492-0.068,10.741s-5.5,8.762-6.858,8.267"/>
<ellipse transform="matrix(-0.9396 -0.3423 0.3423 -0.9396 329.2753 431.5192)" fill="#AF8051" cx="202.72" cy="186.701" rx="3.613" ry="10.116"/>
</svg>
